
<?xml version="1.0" encoding="UTF-8" ?>
<!DOCTYPE svg PUBLIC "-//W3C//DTD SVG 1.1//EN" "http://www.w3.org/Graphics/SVG/1.1/DTD/svg11.dtd">
<svg width="512pt" height="512pt" viewBox="0 0 512 512" version="1.1" xmlns="http://www.w3.org/2000/svg">
<g id="#0091eafe">
<path fill="#ffffff" opacity="1.00" d=" M 264.99 103.90 C 295.31 99.44 326.37 110.01 350.44 128.26 C 350.06 129.34 349.66 130.42 349.24 131.49 C 336.42 152.75 325.07 174.86 311.97 195.95 C 300.06 216.83 288.32 237.83 275.74 258.31 C 266.96 245.98 257.21 233.95 243.99 226.16 C 242.61 225.47 241.18 226.49 239.88 226.91 C 233.52 221.12 227.40 215.07 221.51 208.81 C 223.95 206.08 226.31 203.29 228.71 200.53 C 228.19 198.33 227.78 196.22 227.25 194.05 C 236.67 184.37 247.60 174.17 261.66 172.64 C 269.08 171.02 276.14 174.32 283.32 175.59 C 275.26 162.89 261.59 152.73 245.99 152.90 C 230.00 152.09 216.23 161.63 204.26 171.07 C 202.36 169.63 199.72 168.73 197.94 170.89 C 187.98 181.61 177.50 191.83 167.24 202.25 C 164.70 204.04 164.60 207.11 164.97 209.85 C 165.09 211.59 165.31 213.34 165.06 215.08 C 160.45 218.24 154.48 218.30 149.53 220.80 C 145.87 223.81 142.58 227.42 141.45 232.18 C 149.92 239.84 157.34 248.53 165.22 256.77 C 166.96 258.22 169.12 260.48 171.59 259.67 C 174.48 257.27 176.86 254.30 179.18 251.36 C 181.34 246.46 182.40 241.17 183.90 236.05 C 185.61 235.57 187.33 235.08 189.04 234.59 C 190.33 235.45 191.67 236.26 193.00 237.08 C 196.11 234.23 199.31 231.48 202.33 228.53 C 208.44 234.94 214.62 241.29 221.07 247.36 C 220.08 248.36 219.09 249.35 218.11 250.35 C 228.29 266.52 242.35 279.87 258.22 290.40 C 249.76 302.29 243.48 315.53 235.98 328.02 C 221.38 351.67 208.66 376.42 193.85 399.94 C 158.56 400.15 123.27 399.85 87.98 400.09 C 75.61 400.67 63.81 395.48 53.00 390.00 C 21.78 373.79 5.60 334.77 14.03 300.99 C 19.62 273.63 40.07 249.86 66.38 240.40 C 72.02 238.51 77.86 237.32 83.59 235.73 C 89.55 213.82 103.43 193.47 124.03 183.08 C 138.16 175.18 154.96 175.13 170.65 176.79 C 186.55 138.20 223.38 108.94 264.99 103.90 Z" />
<path fill="#ffffff" opacity="1.00" d=" M 378.39 163.97 C 378.80 163.27 379.21 162.58 379.63 161.88 C 385.35 174.08 392.43 186.33 394.14 199.91 C 393.91 200.44 393.45 201.51 393.22 202.04 C 387.89 213.38 380.72 223.72 374.68 234.68 C 363.65 253.39 353.50 272.62 342.18 291.16 C 337.45 299.44 332.09 307.42 328.27 316.19 C 319.67 308.97 311.57 301.18 303.67 293.22 C 328.66 250.19 353.28 206.94 378.39 163.97 Z" />
<path fill="#ffffff" opacity="1.00" d=" M 429.41 223.23 C 429.69 222.82 430.25 222.01 430.53 221.60 C 433.23 226.72 435.07 232.26 437.71 237.40 C 443.18 240.20 449.17 241.91 454.61 244.82 L 454.17 245.68 C 441.32 270.28 425.98 293.45 412.90 317.92 C 397.06 345.19 380.78 372.21 365.64 399.87 C 352.94 400.16 340.24 400.14 327.56 399.83 C 334.95 384.42 344.83 370.37 352.30 354.99 C 355.36 350.87 358.46 346.73 360.74 342.11 C 368.48 326.16 378.91 311.75 387.07 296.04 C 396.92 278.50 407.30 261.27 417.13 243.73 C 417.15 243.69 417.20 243.61 417.22 243.57 L 417.68 242.77 C 417.71 242.72 417.77 242.62 417.80 242.57 C 417.82 242.53 417.87 242.44 417.90 242.40 C 421.81 236.06 425.15 229.36 429.41 223.23 Z" />
<path fill="#ffffff" opacity="1.00" d=" M 485.64 273.58 C 502.74 298.53 505.29 333.54 490.00 360.01 C 475.31 387.17 443.32 402.74 412.91 400.02 C 425.14 378.00 438.82 356.82 450.54 334.50 C 462.74 314.49 474.50 294.21 485.64 273.58 Z" />
<path fill="#ffffff" opacity="1.00" d=" M 266.62 357.68 C 274.11 344.61 281.32 331.38 289.16 318.51 C 296.84 326.72 304.21 335.22 311.35 343.91 C 301.32 362.85 289.80 380.95 279.76 399.88 C 267.35 400.16 254.94 400.13 242.53 399.81 C 249.69 385.28 258.43 371.63 266.62 357.68 Z" />
</g>
</svg>
